<?xml version="1.0" encoding="UTF-8"?>
<svg width="24" height="24" viewBox="0 0 24 24" fill="none" xmlns="http://www.w3.org/2000/svg">
    <path d="M6 8C6 6.34315 7.34315 5 9 5H15C16.6569 5 18 6.34315 18 8V14C18 15.6569 16.6569 17 15 17H9C7.34315 17 6 15.6569 6 14V8Z" fill="#8b5cf6"/>
    <circle cx="10" cy="10" r="1.5" fill="white"/>
    <circle cx="14" cy="10" r="1.5" fill="white"/>
    <path d="M12 2.5V5" stroke="#8b5cf6" stroke-width="2" stroke-linecap="round"/>
    <circle cx="12" cy="2.5" r="1" fill="#8b5cf6"/>
    <path d="M9 17H15V19C15 20.1046 14.1046 21 13 21H11C9.89543 21 9 20.1046 9 19V17Z" fill="#8b5cf6"/>
    <path d="M9 13H15" stroke="white" stroke-width="1.5" stroke-linecap="round" opacity="0.8"/>
</svg>